<svg width="80" height="50" viewBox="0 0 80 50" fill="none" xmlns="http://www.w3.org/2000/svg">
<path fill-rule="evenodd" clip-rule="evenodd" d="M45.7463 22.5132L45.75 22.3446L45.7143 22.2146L45.7047 22.0772L45.7108 21.3457L45.7128 21.3026L45.7525 21.2484L45.7495 21.1585C45.7426 21.0891 45.7249 21.1025 45.7849 21.1024C45.7806 21.0379 45.7665 21.0531 45.8281 21.0579L46.1209 20.9321L46.1751 20.8903L46.2358 20.883L46.2974 20.8451L46.3677 20.8432L46.4209 20.8013L46.4742 20.8028L46.5685 20.7974L46.6423 20.7603L46.7242 20.7584L47.6177 20.7582L47.724 20.7515C47.7854 20.7416 47.7703 20.7294 47.7616 20.7959L47.754 21.5032L47.8033 22.0273L47.8052 22.4991L49.7137 22.0654C50.5925 21.8059 52.0956 20.8697 52.7869 20.3304C54.103 19.3034 55.2197 17.6603 55.81 16.0398C56.5077 14.1248 56.6655 11.5723 56.179 9.54144C56.0116 8.84272 55.8253 8.27968 55.5629 7.68542C55.437 7.40042 55.2994 7.14707 55.1508 6.88857C54.7615 6.21122 54.105 5.33072 53.5376 4.80606C52.6633 3.99749 51.7144 3.38544 50.6244 2.9031C49.5295 2.41863 47.8719 2.08587 46.6262 2.0925C46.1076 2.09531 45.019 2.22922 44.5273 2.34794C42.1512 2.92156 40.2209 4.21065 38.8075 6.30982C38.017 7.48387 37.3007 9.27247 37.0624 10.7128C37.0016 11.08 36.9702 11.4869 36.9317 11.8491C36.7992 13.096 37.2282 14.922 37.6539 16.0399C38.042 17.0591 38.7588 18.3002 39.4664 19.1427L40.0301 19.7803C40.1511 19.8975 40.2196 19.9327 40.344 20.0654C40.7281 20.4754 41.3875 20.928 41.888 21.2106C41.9963 21.2717 41.9961 21.2875 42.0995 21.3397C42.3814 21.4821 42.6266 21.5961 42.9044 21.7241C43.4644 21.9819 44.0834 22.2113 44.6999 22.3417C44.9759 22.4001 45.4356 22.5132 45.7463 22.5132Z" fill="#E48013"/>
<path fill-rule="evenodd" clip-rule="evenodd" d="M57.6675 35.6869C58.4961 35.6869 59.2973 36.1221 59.7891 36.7524C60.3632 37.4883 60.2184 39.978 60.2184 41.2637C60.2184 43.6231 60.8094 46.5518 58.0069 47.1531C57.022 47.3644 56.1537 47.0337 55.5514 46.5596C55.313 46.3719 54.9528 45.9535 54.7895 45.6909C53.3663 43.4024 53.6236 38.4891 55.27 36.7697C55.4096 36.624 55.439 36.6406 55.6281 36.6822C56.3273 36.8356 56.9679 36.9559 57.6675 36.7847L57.7093 36.17C57.7093 35.9261 57.6675 35.9095 57.6675 35.6869ZM46.6422 20.8116L46.5685 20.7975L46.4742 20.8029C46.4742 20.8683 46.4881 20.8493 46.4208 20.8469L46.3676 20.8433L46.2973 20.8452L46.2357 20.8831L46.175 20.8904C46.175 20.9554 46.1886 20.9363 46.1208 20.9322L45.8281 21.058L45.7849 21.1025L45.7495 21.1585L45.7525 21.2485L45.753 21.3026L45.7108 21.3458L45.7046 22.0773L45.7587 22.2147L45.75 22.3446L45.7463 22.5133C45.9938 23.4887 46.0373 23.3696 46.1751 24.5251C46.4019 26.4254 46.2143 27.7016 47.0155 29.7904C47.3269 30.6023 47.7318 31.5158 48.3309 32.1416L49.4597 33.4154C49.8515 33.8427 50.2817 34.1757 50.7591 34.51C51.2512 34.8547 51.7438 35.1295 52.2729 35.4234L51.3848 36.423C51.0164 36.7805 50.8469 36.9252 50.5341 37.4619C49.4435 39.3332 49.0702 41.6126 49.4406 43.8426C49.6111 44.8689 49.9667 45.955 50.419 46.7233C50.5387 46.9265 50.6844 47.0945 50.8091 47.2798C51.2361 47.9139 51.0742 47.7983 51.6584 48.3202L52.2172 48.7433C52.9777 49.2382 53.8779 49.629 54.9466 49.7855C56.472 50.0088 58.2218 49.638 59.3084 48.6953C59.5746 48.4643 60.1035 47.9737 60.4275 47.8944C60.5682 48.2025 60.5305 48.7868 60.6402 49.1641C60.782 49.6516 61.0216 49.6474 61.5587 49.6926C62.6861 49.7873 65.6327 49.5509 66.2901 48.6494C66.5433 48.3023 66.4276 47.8595 66.1137 47.676C65.3875 47.2515 64.4577 47.3889 64.4436 45.6533C64.4415 45.3928 64.3984 45.26 64.4 44.9526C64.4024 44.4551 64.4002 43.9569 64.4002 43.4594C64.4002 42.9037 64.3578 42.487 64.3584 41.9663C64.3596 40.9316 64.4002 40.03 64.4002 38.9803C64.4002 37.6908 64.3447 30.6248 64.4306 29.9663L64.4853 28.5308C64.4861 27.9754 64.53 27.5186 64.2663 27.2208C63.7324 26.6178 62.5703 27.0387 61.9746 27.2118L59.4174 28.2589C59.2667 28.324 59.0835 28.4325 58.9727 28.5386C58.6356 28.8613 58.7198 29.1339 59.0782 29.507C59.665 30.1178 59.9109 30.5171 60.0819 31.483C60.1177 31.6852 60.1614 31.9467 60.1742 32.1325C60.1915 32.3832 60.2175 32.6161 60.22 32.8309C60.2266 33.3874 60.1766 33.8108 60.1766 34.3256C59.762 34.2894 59.1644 34.017 58.7917 33.8916C58.3468 33.742 57.787 33.667 57.2074 33.667C57.1418 33.3713 57.0141 33.0445 56.9211 32.7821C56.5444 31.7201 56.2374 31.1117 55.6581 30.1562C55.612 30.0803 55.5855 30.0523 55.5352 29.9779C55.4507 29.8529 55.3802 29.7475 55.2899 29.6207L54.7578 28.9498C53.7495 27.5808 51.319 26.2038 49.945 25.4847L48.4113 24.6362C48.1438 24.4828 47.9275 24.3234 47.6729 24.182C47.6729 23.5927 47.7747 23.0652 47.8052 22.4991C47.7449 22.401 47.74 22.1743 47.7506 22.0274L47.754 21.5033L47.7615 20.796L47.724 20.8014L47.6177 20.7583L46.7241 20.7585L46.6422 20.8116Z" fill="#2B642F"/>
<path fill-rule="evenodd" clip-rule="evenodd" d="M23.6274 18.4295C23.6274 16.2569 23.7111 14.059 23.7111 11.7988C24.0686 11.7988 24.3491 11.711 24.7565 11.711C26.3402 11.711 27.8957 11.999 28.9982 12.7899C30.9903 14.2189 30.7499 18.683 28.979 19.7457C27.8732 20.4093 26.2527 20.4292 24.9248 20.3606C23.8377 20.3045 23.6274 19.4957 23.6274 18.4295ZM24.2547 2.09426C25.71 2.09426 27.4662 2.05007 28.4886 3.00567C28.8492 3.34269 29.1263 3.75828 29.2656 4.29762C29.5414 5.36535 29.6173 6.9869 29.1341 8.00837C29.0298 8.229 28.8816 8.52219 28.739 8.69127C28.5236 8.94655 28.4856 9.0315 28.1891 9.21163C27.2247 9.79764 25.0464 10.1494 23.7111 9.82275C23.7111 9.0844 23.6693 8.50025 23.6693 7.7589C23.6693 7.05629 23.6689 6.35373 23.6693 5.65113C23.6696 5.03819 23.5565 4.22075 23.6451 3.6058C23.7368 2.96942 23.5612 2.09426 24.2547 2.09426ZM17.0202 0.732967C17.0202 1.07937 17.0008 1.28517 17.176 1.57924C17.5074 2.13539 18.9442 1.35368 18.9438 5.08025C18.9437 6.09363 18.902 7.01952 18.902 8.0663V17.2439C18.9023 17.7669 18.8574 18.1478 18.8607 18.6936C18.8736 20.842 17.0202 19.9448 17.0202 21.3716C17.0202 22.6454 18.1055 22.2764 18.8843 22.4002C19.2116 22.4522 21.3189 22.4255 21.7456 22.4255C22.1894 22.4255 22.5196 22.3771 22.9177 22.3798C23.1684 22.3815 23.2224 22.4242 23.4585 22.4273C25.7353 22.4568 28.8098 22.6317 30.8987 21.8931C31.2085 21.7836 31.4932 21.682 31.7832 21.5485C32.5381 21.2009 33.4376 20.6423 33.9502 19.9597C34.0403 19.8397 34.2419 19.714 34.5366 19.302C35.3777 18.1258 35.5785 16.4433 35.2697 15.0307C35.0556 14.0512 34.4259 12.8581 33.7352 12.2509C32.5575 11.2155 32.2635 11.2176 30.9614 10.7723C30.7315 10.6938 30.0684 10.5308 29.942 10.3497C30.211 10.2839 30.4297 10.1176 30.7106 10.015C30.883 9.95199 30.9305 9.91029 31.0888 9.84136C31.2704 9.76232 31.3282 9.73618 31.4813 9.63873C32.4185 9.04229 33.2254 8.46291 33.7614 7.33444C33.916 7.00899 33.9864 6.85169 34.0742 6.47723C34.5396 4.49325 33.6951 2.59796 32.2307 1.44745C31.1735 0.616843 29.1271 0.15416 27.7248 0.119048L26.3853 0.0326936C25.9012 -0.00936857 22.6905 0.0304106 22.0384 0.0304106C21.0766 0.0304106 20.1147 0.0297882 19.1529 0.0304106C18.3312 0.0309292 17.0202 -0.223933 17.0202 0.732967Z" fill="#E48013"/>
<path fill-rule="evenodd" clip-rule="evenodd" d="M0.0836205 33.8426C0.0836205 35.1678 0.354238 36.2477 1.06928 37.2427C2.41674 39.1175 4.59798 40.017 6.61919 40.856C7.24804 41.117 7.83047 41.4029 8.40583 41.7025C9.74988 42.4025 10.6637 43.3113 10.6637 44.9523C10.6637 45.6772 10.413 46.1826 10.1292 46.6306C9.29533 47.9467 7.55244 48.0857 6.15041 47.7594C2.90621 47.0046 2.27652 43.4298 1.9573 43.0727C1.59975 42.6727 0.7796 42.6716 0.392763 42.9496C0.341445 42.9864 0.213125 43.1149 0.176576 43.1617C0.0710253 43.297 0.021436 43.8424 0 44.4891V47.0601C0 47.8984 0.254861 48.3068 0.911278 48.7379C1.90287 49.3891 3.68892 49.7179 4.89161 49.8278C8.50541 50.1579 12.324 50.1445 14.3939 46.542C15.0488 45.4022 15.1801 44.3927 15.1801 43.0202C15.1801 42.2211 14.9203 41.4422 14.6965 40.8494C13.6099 37.9707 10.4141 37.1769 7.75431 36.0633C6.45007 35.5173 4.43276 34.5219 4.43276 32.7887C4.43276 31.8241 4.57896 31.0331 5.2373 30.3402C6.28485 29.2375 8.14954 29.4055 9.38172 30.051C9.55483 30.1417 9.627 30.1832 9.77438 30.2974C9.9795 30.4563 9.93288 30.4502 10.0885 30.6263C10.1441 30.6893 10.179 30.7142 10.2331 30.7817C10.9 31.6144 11.1481 31.859 11.5474 33.1342C11.6481 33.4553 11.7465 33.7902 11.9495 34.0293C12.689 34.901 13.3195 34.3319 13.8837 34.1939C13.8837 32.613 13.9673 31.1537 13.9673 29.5392C13.9673 28.8383 13.723 28.8022 13 28.4911C12.5077 28.2793 12.0312 28.1087 11.4916 27.9672C8.56384 27.1993 4.82523 27.1755 2.39506 29.0681C1.65566 29.644 1.238 30.1883 0.796294 30.9902C0.403086 31.7041 0.0836205 32.9553 0.0836205 33.8426Z" fill="#2B642F"/>
<path fill-rule="evenodd" clip-rule="evenodd" d="M41.1072 35.3357C41.1072 36.1179 41.8916 36.268 42.0837 36.3742C42.9376 36.8455 42.6963 39.0274 42.6963 39.9464C42.6963 40.6489 42.6995 41.3522 42.696 42.0545C42.6943 42.4206 42.7715 42.6537 42.7205 43.0017C42.6281 43.6336 42.7929 44.2849 42.5869 44.9692C41.9099 47.2177 38.1534 47.7717 37.4683 45.7875C36.8231 43.9187 37.1806 39.0852 37.1763 37.0921C37.1729 35.5443 37.5776 33.8866 35.9635 33.8866C35.0456 33.8866 32.9819 34.3753 32.1099 34.7142C31.1228 35.0979 31.0091 35.7149 31.7149 36.1524C32.2303 36.4719 32.5324 36.5595 32.7608 37.2497C33.1401 38.3963 32.7267 42.7672 32.9047 44.4319C32.9377 44.7401 32.8943 45.1186 32.9106 45.4357C32.9251 45.7172 32.9699 46.092 33.012 46.383C33.2682 48.153 34.2465 49.2026 35.7273 49.7234C37.4991 50.3464 39.6377 49.8454 41.0942 48.9347C41.463 48.7041 42.4714 47.8158 42.8636 47.8067C42.8636 47.9786 43.0456 49.3996 43.0909 49.4563C43.1554 49.537 43.0763 49.5087 43.4186 49.5512C44.9671 49.7433 46.9937 49.6051 48.3897 49.0865C48.5968 49.0096 48.6792 48.9464 48.8137 48.7852C49.1582 48.3725 48.9953 47.8797 48.5826 47.5978C48.2526 47.3724 47.2228 47.5995 47.0009 45.9213C46.9173 45.2892 46.9585 44.4708 46.9623 43.7662C46.9644 43.3926 46.8802 43.1167 46.9314 42.7249C46.9887 42.2868 46.962 39.0993 46.9618 38.3217C46.9616 37.3163 47.2464 34.7459 46.7229 34.1813C46.4264 33.8614 46.243 33.8427 45.7909 33.8427C44.8116 33.8427 42.8991 34.2859 41.9588 34.6051C41.7484 34.6765 41.6049 34.731 41.427 34.8372C41.2787 34.9256 41.1072 35.125 41.1072 35.3357Z" fill="#2B642F"/>
<path fill-rule="evenodd" clip-rule="evenodd" d="M61.4729 17.5512C61.4729 16.926 61.6687 16.5049 61.9802 16.0639C62.504 15.3225 63.7985 14.9977 64.625 14.7134C64.957 14.5991 65.8715 14.3542 66.2402 14.3456V17.5512C66.2402 18.3922 66.0286 18.767 65.4221 19.1513C64.9233 19.4672 64.2604 19.7468 63.522 19.7468C62.3925 19.7468 61.4729 18.7319 61.4729 17.5512ZM58.002 9.9544C58.002 10.0816 58.0654 10.4353 58.1034 10.5505C58.3385 11.2625 58.8909 11.4914 59.5911 11.4914C60.4708 11.4914 61.4047 10.497 61.7639 9.86478C61.984 9.47735 62.2152 9.03412 62.4887 8.69373C63.1826 7.82988 64.5169 7.84269 65.2796 8.4162C66.2581 9.15201 66.282 10.8516 66.282 12.1939C66.282 12.4147 66.2444 12.3906 66.2402 12.5892L65.688 12.7558C65.4871 12.8136 65.3061 12.8514 65.1076 12.8929C62.6883 13.3992 59.4324 13.5651 57.8698 15.7877C57.0243 16.9904 56.892 19.0496 57.5972 20.5232C58.5633 22.5423 61.0078 22.9799 63.0293 22.435C64.496 22.0396 65.7854 20.7525 66.2402 20.6251C66.4759 21.1408 66.4345 21.7058 67.1195 22.1168C68.8148 23.1341 72.3875 22.3988 72.3875 21.1959C72.3875 20.7561 72.2448 20.672 72.2202 20.3616C70.6836 19.9857 70.3802 19.717 70.3802 17.5951C70.3802 16.3097 70.5057 15.1856 70.5057 13.9065C70.5057 12.0758 70.5499 9.96364 69.6617 8.42544C67.874 5.32923 62.8224 5.28193 60.1783 6.88247C59.92 7.03884 59.6556 7.22094 59.4229 7.40661C58.987 7.75457 58.5006 8.34069 58.2665 8.8709C58.1604 9.11135 58.002 9.63227 58.002 9.9544Z" fill="#E48013"/>
<path fill-rule="evenodd" clip-rule="evenodd" d="M20.5327 45.084C20.5327 44.3916 20.5936 43.8973 21.1277 43.3815C21.7979 42.7343 22.8015 42.4356 23.6859 42.2035L25.2164 41.8346V45.2158C25.2164 45.6574 25.0855 45.7347 24.8995 45.9808C24.7321 46.2024 24.6192 46.393 24.3893 46.5429C22.8689 47.5354 20.5327 47.1288 20.5327 45.084ZM17.3127 37.4873C17.3127 37.9857 17.3904 38.4786 17.7417 38.7933C18.3797 39.365 19.4201 39.2513 20.1046 38.5307C20.4296 38.1885 20.6578 37.8171 20.9174 37.4082C21.1737 37.0046 21.3907 36.6053 21.714 36.2686C22.1517 35.8128 22.4307 35.643 23.1673 35.643C25.0276 35.643 25.2582 37.8031 25.2582 39.3316C25.2582 39.6496 25.2164 39.7714 25.2164 40.0781C24.6716 40.4612 23.1861 40.6458 22.3428 40.7931C21.8521 40.8788 21.3338 40.9755 20.8419 41.1054C19.5722 41.4406 18.1243 41.955 17.3181 43.0259C16.1794 44.5384 16.0879 46.7022 17.0117 48.2544C17.2494 48.6536 17.628 49.0212 17.9983 49.2823C18.8029 49.8498 19.7434 49.9583 20.7418 49.9583C22.1182 49.9583 23.2299 49.3299 24.2378 48.6233C24.4104 48.5023 24.5527 48.4023 24.714 48.2891C24.82 48.2148 25.1308 48.0134 25.2582 47.9822C25.3688 48.2243 25.445 48.5218 25.5511 48.7725C26.0133 49.8651 27.0776 49.9144 28.1855 49.9144C29.6827 49.9144 32.501 48.8847 30.9056 47.7167C30.2055 47.2042 29.3564 47.9606 29.3564 45.5671C29.3564 42.7854 29.6737 39.1621 28.9859 36.9981C28.6138 35.8271 28.3174 35.7196 27.5903 35.0385L26.9592 34.5594C24.7469 33.321 21.5838 33.3615 19.3056 34.6618C18.4077 35.1743 17.3127 36.3295 17.3127 37.4873Z" fill="#2B642F"/>
<path fill-rule="evenodd" clip-rule="evenodd" d="M72.5129 39.9904H70.9656V39.5952C70.9656 37.7809 71.6652 35.7766 73.0127 35.4214C74.8046 34.9492 75.9002 36.8371 75.9002 38.5852C75.9002 40.0849 75.5833 39.9465 74.6875 39.9464C73.96 39.9464 73.2831 39.9904 72.5129 39.9904ZM66.5747 42.0542C66.5747 43.8407 66.996 45.3082 67.7796 46.6733C67.8483 46.793 67.8913 46.8814 67.972 46.9981C68.8874 48.3216 69.9755 49.0715 71.5327 49.5386C74.0639 50.2978 76.8173 49.4448 78.7568 47.7324C78.8741 47.6289 78.9149 47.6072 79.0265 47.4887C79.4336 47.0564 80.3789 46.3187 79.7972 45.5589C79.6503 45.3672 79.4154 45.1865 79.1819 45.1567C79.0407 45.1387 78.9062 45.3402 78.6184 45.5672C78.4271 45.7181 78.2359 45.8556 78.0249 45.9979C76.6944 46.8949 74.8892 47.5907 73.3358 46.6791C72.4932 46.1846 71.948 45.4291 71.5231 44.5427C71.3163 44.111 71.1288 43.5745 71.0425 43.0273C70.7825 41.3793 71.4144 41.659 73.3911 41.659C74.0726 41.659 74.6175 41.6159 75.2729 41.6151C75.6422 41.6146 75.855 41.6616 76.1924 41.6596C77.1252 41.654 78.3806 41.7108 79.2098 41.4457C80.0684 41.1712 79.9984 40.2522 79.9984 39.4195C79.9984 38.6244 79.661 37.5676 79.3995 37.0184C78.9912 36.1606 78.5341 35.4928 77.8298 34.8903C77.3786 34.5043 77.0202 34.2919 76.4717 34.033C74.6196 33.1586 71.8304 33.4679 70.1711 34.6331C69.1251 35.3675 68.4747 36.0979 67.816 37.2539C67.57 37.6857 67.3739 38.1207 67.1894 38.6159C66.8417 39.5491 66.5747 40.7763 66.5747 42.0542Z" fill="#2B642F"/>
<path fill-rule="evenodd" clip-rule="evenodd" d="M39.1836 30.5931C39.1836 30.9517 39.2672 31.205 39.2672 31.5152C40.0256 31.7008 40.3917 31.6993 41.2155 31.4533C41.7742 31.2864 42.6739 30.8258 43.1051 30.4515L44.2131 29.3755C44.3141 29.2648 44.4472 29.087 44.5288 28.9604C45.7981 26.9898 45.8023 24.5556 45.3517 24.558C44.7068 24.5614 41.9796 26.3262 41.3581 26.8166C41.206 26.9366 41.0358 27.0641 40.888 27.2012C40.4314 27.6248 39.7821 28.5755 39.5066 29.1758C39.334 29.5517 39.1836 30.0546 39.1836 30.5931Z" fill="#2B642F"/>
<path fill-rule="evenodd" clip-rule="evenodd" d="M47.8047 22.4991L47.8027 22.0273H47.7505C47.7399 22.1743 47.7448 22.4009 47.8047 22.4991Z" fill="#5D6D28"/>
<path fill-rule="evenodd" clip-rule="evenodd" d="M47.7505 22.0274H47.8027L47.7538 21.5033L47.7505 22.0274Z" fill="#9D771F"/>
<path fill-rule="evenodd" clip-rule="evenodd" d="M45.7142 22.2137H45.7583L45.7046 22.0773L45.7142 22.2137Z" fill="#737125"/>
<path fill-rule="evenodd" clip-rule="evenodd" d="M45.7499 22.3437L45.7585 22.2147H45.7144L45.7499 22.3437Z" fill="#9D771F"/>
<path fill-rule="evenodd" clip-rule="evenodd" d="M47.7232 20.8011V20.7516L47.6177 20.7583L47.7232 20.8011Z" fill="#5D6D28"/>
<path fill-rule="evenodd" clip-rule="evenodd" d="M46.4734 20.8029L46.4209 20.8014V20.8462C46.4871 20.8486 46.4734 20.8672 46.4734 20.8029Z" fill="#5D6D28"/>
<path fill-rule="evenodd" clip-rule="evenodd" d="M47.761 20.7952C47.7696 20.7297 47.7844 20.7418 47.7241 20.7515V20.8005L47.761 20.7952Z" fill="#9D771F"/>
<path fill-rule="evenodd" clip-rule="evenodd" d="M46.7232 20.7584L46.6426 20.7603V20.8106L46.7232 20.7584Z" fill="#5D6D28"/>
<path fill-rule="evenodd" clip-rule="evenodd" d="M46.6409 20.8106V20.7603L46.5684 20.7968L46.6409 20.8106Z" fill="#9D771F"/>
<path fill-rule="evenodd" clip-rule="evenodd" d="M46.1744 20.8905L46.1211 20.9316C46.1877 20.9356 46.1744 20.9545 46.1744 20.8905Z" fill="#737125"/>
<path fill-rule="evenodd" clip-rule="evenodd" d="M45.7842 21.1025C45.7252 21.1026 45.7426 21.0894 45.7494 21.1577L45.7842 21.1025Z" fill="#9D771F"/>
<path fill-rule="evenodd" clip-rule="evenodd" d="M46.4205 20.8462V20.8014L46.3682 20.8426L46.4205 20.8462Z" fill="#9D771F"/>
<path fill-rule="evenodd" clip-rule="evenodd" d="M45.8276 21.058C45.7664 21.0532 45.7804 21.0382 45.7847 21.1022L45.8276 21.058Z" fill="#9D771F"/>
<path fill-rule="evenodd" clip-rule="evenodd" d="M45.7525 21.3017L45.752 21.2484L45.7129 21.3017H45.7525Z" fill="#9D771F"/>
<path fill-rule="evenodd" clip-rule="evenodd" d="M45.7529 21.3027H45.7128L45.7109 21.3456L45.7529 21.3027Z" fill="#737125"/>
<path fill-rule="evenodd" clip-rule="evenodd" d="M46.2964 20.8452L46.2358 20.8825L46.2964 20.8452Z" fill="#737125"/>
</svg>
